<?xml version="1.0" encoding="UTF-8" standalone="no"?>
<svg width="46px" height="46px" viewBox="0 0 46 46" version="1.1" xmlns="http://www.w3.org/2000/svg">
    <defs>
        <filter x="-50%" y="-50%" width="200%" height="200%" filterUnits="objectBoundingBox" id="filter-1">
            <feOffset dx="0" dy="1" in="SourceAlpha" result="shadowOffsetOuter1"/>
            <feGaussianBlur stdDeviation="0.5" in="shadowOffsetOuter1" result="shadowBlurOuter1"/>
            <feColorMatrix values="0 0 0 0 0   0 0 0 0 0   0 0 0 0 0  0 0 0 0.168 0" in="shadowBlurOuter1" result="shadowMatrixOuter1"/>
            <feOffset dx="0" dy="0" in="SourceAlpha" result="shadowOffsetOuter2"/>
            <feGaussianBlur stdDeviation="0.5" in="shadowOffsetOuter2" result="shadowBlurOuter2"/>
            <feColorMatrix values="0 0 0 0 0   0 0 0 0 0   0 0 0 0 0  0 0 0 0.084 0" in="shadowBlurOuter2" result="shadowMatrixOuter2"/>
            <feMerge>
                <feMergeNode in="shadowMatrixOuter1"/>
                <feMergeNode in="shadowMatrixOuter2"/>
                <feMergeNode in="SourceGraphic"/>
            </feMerge>
        </filter>
    </defs>
    <g id="Google-Button" stroke="none" stroke-width="1" fill="none" fill-rule="evenodd">
        <g id="btn_google_light_normal" transform="translate(-1, -1)">
            <g id="button" transform="translate(4, 4)" filter="url(#filter-1)">
                <path d="M40,20 C40,31.0457 31.0457,40 20,40 C8.95431,40 0,31.0457 0,20 C0,8.95431 8.95431,0 20,0 C31.0457,0 40,8.95431 40,20 Z" fill="#FFFFFF"/>
                <path d="M29.6,20.2c0-0.7-0.1-1.3-0.2-1.9h-9.4v3.7h5.4c-0.2,1.2-0.9,2.3-2,3v2.5h3.2C28.5,25.9,29.6,23.3,29.6,20.2z" fill="#4285F4"/>
                <path d="M20,30c2.7,0,4.9-0.9,6.6-2.4l-3.2-2.5c-0.9,0.6-2,1-3.3,1c-2.6,0-4.7-1.7-5.5-4h-3.3v2.6C12.9,27.8,16.2,30,20,30z" fill="#34A853"/>
                <path d="M14.5,22c-0.2-0.6-0.3-1.3-0.3-2s0.1-1.4,0.3-2v-2.6h-3.3C10.5,16.6,10,18.2,10,20s0.5,3.4,1.2,4.9l3.3-2.6z" fill="#FBBC05"/>
                <path d="M20,14c1.4,0,2.7,0.5,3.8,1.5l2.8-2.8C24.9,11.1,22.7,10,20,10c-3.8,0-7.1,2.2-8.8,5.4l3.3,2.6C15.3,15.7,17.4,14,20,14z" fill="#EA4335"/>
            </g>
        </g>
    </g>
</svg> 